<?xml version="1.0" encoding="UTF-8" standalone="no"?>
<!-- Created with Inkscape (http://www.inkscape.org/) -->

<svg
   id="svg2"
   sodipodi:version="0.32"
   inkscape:version="1.2.2 (b0a8486541, 2022-12-01, custom)"
   width="703.92853"
   height="699.57532"
   version="1.0"
   sodipodi:docname="VeveLegba.svg"
   inkscape:output_extension="org.inkscape.output.svg.inkscape"
   xmlns:inkscape="http://www.inkscape.org/namespaces/inkscape"
   xmlns:sodipodi="http://sodipodi.sourceforge.net/DTD/sodipodi-0.dtd"
   xmlns="http://www.w3.org/2000/svg"
   xmlns:svg="http://www.w3.org/2000/svg"
   xmlns:rdf="http://www.w3.org/1999/02/22-rdf-syntax-ns#"
   xmlns:cc="http://creativecommons.org/ns#"
   xmlns:dc="http://purl.org/dc/elements/1.1/">
  <metadata
     id="metadata7">
    <rdf:RDF>
      <cc:Work
         rdf:about="">
        <dc:format>image/svg+xml</dc:format>
        <dc:type
           rdf:resource="http://purl.org/dc/dcmitype/StillImage" />
      </cc:Work>
    </rdf:RDF>
  </metadata>
  <defs
     id="defs5" />
  <sodipodi:namedview
     inkscape:window-height="1117"
     inkscape:window-width="1861"
     inkscape:pageshadow="2"
     inkscape:pageopacity="0.0"
     guidetolerance="10.0"
     gridtolerance="10.0"
     objecttolerance="10.0"
     borderopacity="1.0"
     bordercolor="#666666"
     pagecolor="#ffffff"
     id="base"
     inkscape:zoom="0.4921875"
     inkscape:cx="-60.952381"
     inkscape:cy="364.69841"
     inkscape:window-x="4827"
     inkscape:window-y="1031"
     inkscape:current-layer="svg2"
     inkscape:showpageshadow="2"
     inkscape:pagecheckerboard="0"
     inkscape:deskcolor="#d1d1d1"
     showgrid="false"
     inkscape:window-maximized="0" />
  <path
     style="fill:none;stroke-width:6.3;stroke-dasharray:none;stroke:#000000;stroke-opacity:1"
     d="m 348.80096,698.04219 c -0.95382,-1.1518 -1.38184,-4.67641 -1.40327,-11.55552 -0.0369,-11.8547 -1.24129,-13.60727 -5.59026,-8.13479 -3.43022,4.31636 -10.24985,9.34762 -12.67025,9.34762 -2.06069,0 -4.20866,-1.82944 -4.20866,-3.58454 0,-0.65149 3.58185,-4.04899 7.95967,-7.55 4.37782,-3.501 7.97782,-6.64408 8,-6.98462 0.0622,-0.95426 -6.74387,-1.85764 -14.08723,-1.86983 -4.85936,-0.008 -6.98364,-0.44007 -7.96225,-1.61922 -1.13521,-1.36785 -1.04142,-1.82991 0.62756,-3.09149 1.55815,-1.1778 3.89054,-1.35795 11.32563,-0.87474 l 9.36338,0.60853 -2.86338,-3.56293 c -1.57486,-1.95961 -4.77588,-5.72645 -7.11338,-8.37075 -4.46669,-5.05295 -5.29579,-7.76187 -2.68254,-8.76467 2.23246,-0.85668 5.65251,1.23447 12.4785,7.62984 l 5.95404,5.57843 v -10.19022 c 0,-5.60462 0.27539,-10.90786 0.61197,-11.78499 0.43821,-1.14195 -0.24521,-1.89359 -2.40688,-2.64715 -2.81586,-0.98161 -8.29753,-6.66459 -16.02566,-16.61419 -4.5341,-5.83742 -9.80755,-17.66507 -12.26303,-27.50434 -1.13967,-4.56672 -2.56735,-10.01558 -3.17262,-12.10858 -1.09661,-3.79198 -0.91505,-4.95943 3.14067,-20.19454 0.43925,-1.65 2.90516,-7.98677 5.47981,-14.08172 3.63606,-8.60761 6.35335,-13.17605 12.17098,-20.46242 4.1194,-5.15939 7.35176,-9.84762 7.18302,-10.41829 -0.16873,-0.57066 -2.76187,-2.2906 -5.76252,-3.82208 -3.00066,-1.53148 -7.48074,-4.73004 -9.95574,-7.10792 l -4.5,-4.32341 -6.69656,4.60792 c -9.30344,6.40171 -24.89149,18.34537 -33.70604,25.82577 -4.07143,3.45518 -7.76395,6.28215 -8.20559,6.28215 -0.44165,0 -2.35794,1.05521 -4.25843,2.34492 -6.66474,4.52282 -26.23721,4.03855 -31.56268,-0.78093 -0.9505,-0.8602 -2.22259,-1.56399 -2.82686,-1.56399 -5.56,0 -12.1813,-25.05872 -9.30905,-35.23071 2.03901,-7.22109 8.66557,-12.85018 16.73142,-14.2129 7.59105,-1.2825 11.70062,2.36316 14.854,13.17721 1.54599,5.30173 1.11346,10.64429 -0.80986,10.00318 -0.57803,-0.19267 -2.13319,-3.24414 -3.45589,-6.78103 -1.32271,-3.53689 -2.93357,-6.76695 -3.5797,-7.17792 -4.167,-2.65041 -15.97808,1.28891 -17.76942,5.9266 -3.48582,9.02461 3.0339,23.99753 13.1169,30.12374 5.07656,3.0844 5.96805,3.29589 12.17199,2.88751 10.04611,-0.6613 18.6551,-5.22567 34.80577,-18.45356 17.10132,-14.0065 22,-18.3139 22,-19.34455 0,-0.45239 3.50566,-4.42367 7.79036,-8.82508 8.21845,-8.44231 14.20412,-12.02188 20.20964,-12.08584 6.92597,-0.0738 6.48842,4.06243 6.20596,-58.6646 -0.16027,-35.59256 -0.61996,-56.97988 -1.23285,-57.35867 -1.42037,-0.87784 -11.75471,-1.07713 -66.96386,-1.29135 l -49.49075,-0.19203 -1.07407,4.5 c -1.35181,5.66362 -4.18897,12 -5.37308,12 -1.00076,0 -3.01633,2.11579 -12.09817,12.69969 -3.40489,3.96803 -9.37066,9.35436 -13.29091,12 -13.1434,8.87 -23.38076,21.02365 -30.12038,35.7585 -3.94587,8.62688 -3.86015,14.648 0.32212,22.62662 7.3026,13.9313 11.07518,16.47557 22.9726,15.49294 12.23722,-1.01069 23.15894,-7.58946 23.12808,-13.93134 -0.008,-1.73053 -0.34592,-3.61809 -0.75,-4.19459 -1.51959,-2.16799 -7.86895,-5.97387 -12.68784,-7.60523 -5.3283,-1.8038 -6.78172,-3.4355 -4.00818,-4.4998 2.25964,-0.86711 10.90623,2.25968 16.21003,5.86189 9.75809,6.62746 9.25362,12.97647 -1.8352,23.09702 -6.47297,5.90777 -7.48964,6.47396 -12.56546,6.99783 -6.89228,0.71134 -19.22148,-2.25082 -24.45018,-5.87431 -7.59335,-5.2622 -12.25877,-12.15876 -13.70276,-20.25583 -1.10806,-6.21335 -0.56451,-9.15308 3.45265,-18.67339 6.62897,-15.71006 16.33472,-27.38661 40.16151,-48.31646 3.95491,-3.47406 7.19074,-6.65963 7.19074,-7.07907 0,-0.41943 -2.22012,-1.80244 -4.9336,-3.07337 -5.44025,-2.54807 -10.8503,-7.64789 -13.82382,-13.0311 l -1.93329,-3.5 -11.90465,0.1858 c -6.54755,0.10218 -13.64028,0.21468 -15.76163,0.25 -3.00272,0.05 -3.7295,0.39643 -3.28138,1.5642 0.31658,0.825 0.21196,1.5 -0.2325,1.5 -0.44445,0 -1.35713,1.2375 -2.02816,2.75 -0.67104,1.5125 -3.74907,6.575 -6.84008,11.25 -3.09101,4.675 -7.10405,10.76818 -8.91787,13.5404 -1.81382,2.77221 -6.23094,7.94721 -9.81582,11.5 -3.58488,3.55278 -6.52004,7.04087 -6.52258,7.7513 -0.003,0.71044 1.38338,4.31044 3.07981,8 1.69644,3.68957 3.96864,8.7333 5.04933,11.2083 3.18351,7.2909 8.26847,17.3766 9.62253,19.0857 0.69097,0.87213 2.14195,4.96702 3.22442,9.09975 2.30878,8.81469 7.48441,20.81455 8.97747,20.81455 0.573,0 1.04182,0.47656 1.04182,1.05902 0,0.58246 -0.40971,0.8058 -0.91046,0.49632 -1.69859,-1.04979 1.81888,9.91025 5.37362,16.74358 4.54714,8.74104 4.70911,14.18644 0.68331,22.97304 -3.25739,7.10949 -12.88077,17.02136 -20.10341,20.70607 -3.81786,1.94773 -5.50963,2.18864 -12.47982,1.77713 -12.03527,-0.71054 -18.58655,-3.57779 -24.21755,-10.59913 -6.83135,-8.51806 -8.78351,-13.38566 -8.58655,-21.41006 0.29624,-12.0697 4.45275,-22.5921 10.40964,-26.35252 10.48185,-6.6169 21.87223,1.00383 24.83269,16.61431 1.13179,5.96788 0.60308,7.75081 -2.25462,7.60313 -1.81097,-0.0936 -2.31848,-1.04741 -3.25146,-6.11089 -0.60804,-3.3 -1.64233,-6.98121 -2.29842,-8.18046 -2.69141,-4.91952 -11.78085,-8.73971 -14.81102,-6.22489 -2.46389,2.04485 -5.00335,7.93969 -6.26947,14.55328 -1.32086,6.8996 -0.47897,10.66145 4.14277,18.51121 7.34841,12.48084 18.49262,17.9172 30.24075,14.75203 4.62186,-1.24522 15.25228,-11.54512 18.51375,-17.93812 3.6624,-7.1789 1.90507,-16.33332 -6.05135,-31.52311 -1.45487,-2.77754 -2.97279,-6.37754 -3.37315,-8 -0.8608,-3.48836 -2.11313,-6.28486 -11.39706,-25.44994 -3.86324,-7.975 -7.56843,-16.525 -8.23375,-19 -0.66533,-2.475 -1.76065,-5.85 -2.43406,-7.5 -0.6734,-1.65 -1.79646,-4.4625 -2.49569,-6.25 -0.69923,-1.7875 -1.64109,-3.25 -2.09301,-3.25 -0.45192,0 -3.43483,2.38365 -6.62868,5.29699 -14.01126,12.78071 -24.20392,17.70301 -36.6578,17.70301 -7.64882,0 -7.72061,-0.0246 -12.25583,-4.20505 -2.50907,-2.31278 -5.42401,-5.89485 -6.47766,-7.96016 -3.51788,-6.89562 -1.94642,-15.6745 3.75238,-20.9626 4.31208,-4.00131 6.66579,-4.87219 13.16798,-4.87219 h 5.96756 l 4.64057,6.24478 c 6.87013,9.24508 7.28673,12.9965 1.58241,14.24938 -4.55324,1.00005 -6.24762,-0.81638 -5.50192,-5.89828 0.80654,-5.49649 -0.79273,-7.34275 -7.44145,-8.59067 -4.31964,-0.81077 -5.85907,-0.72688 -7.60053,0.41416 -4.271,2.79847 -6.72623,11.6318 -4.66242,16.77432 0.37384,0.93153 2.61733,3.35059 4.98553,5.3757 5.18326,4.43234 8.96287,4.6705 21.29823,1.34207 6.82464,-1.84149 9.13671,-3.0809 15.69961,-8.41599 4.23299,-3.44106 9.0357,-7.67869 10.6727,-9.41696 l 2.97636,-3.16048 -2.34834,-6.70902 c -1.29158,-3.68995 -2.97236,-7.71166 -3.73507,-8.93712 -0.7627,-1.22547 -3.36552,-7.348 -5.78404,-13.60563 -5.33682,-13.80839 -8.22392,-19.61519 -9.85559,-19.82248 -4.61781,-0.58668 -8.31829,-0.73099 -16.22968,-0.63292 -12.43431,0.15412 -12.88998,0.14558 -22.77749,-0.42687 -12.05668,-0.69803 -12.42618,0.22644 -4.10873,10.27992 6.60231,7.98036 7.80704,10.93609 4.45742,10.93609 -2.65275,0 -14.0712,-11.41314 -14.0712,-14.06467 0,-1.65887 -3.48261,-0.61482 -3.59589,1.07802 -0.0547,0.81766 -0.16802,5.61883 -0.2518,10.66926 -0.13904,8.38237 -0.33538,9.24072 -2.25297,9.84934 -1.15537,0.3667 -2.47562,0.28452 -2.93388,-0.18261 -0.45826,-0.46714 -0.94611,-5.2206 -1.0841,-10.56325 -0.18739,-7.25498 -0.60734,-9.85069 -1.65898,-10.25424 -0.84259,-0.32334 -4.11369,2.07173 -8.14529,5.96391 -7.04382,6.80023 -8.46589,7.53941 -9.47011,4.92245 -1.06192,-2.76732 -0.7111,-3.40864 4.48084,-8.19123 9.97661,-9.19003 9.24959,-10.72698 -5.07413,-10.72698 -9.5717896,0 -10.51878959,-0.16866 -10.85874959,-1.9339 -0.66301,-3.44274 2.52966999,-4.5661 12.97715959,-4.5661 5.42122,0 10.02424,-0.44397 10.36789,-1 0.33992,-0.55 0.18593,-1 -0.34221,-1 -0.52813,0 -1.90189,-1.4625 -3.0528,-3.25 -1.1509,-1.7875 -3.67035,-5.19748 -5.59877,-7.57774 -3.97048,-4.90078 -4.6821596,-9.17226 -1.52821,-9.17226 1.22106,0 4.06221,2.52678 7.42436,6.60287 2.99549,3.63158 6.38039,7.25709 7.52199,8.0567 2.03071,1.42237 2.07564,1.32591 2.07564,-4.45617 0,-3.25051 0.28911,-8.67603 0.64246,-12.05671 0.52389,-5.01236 0.97436,-6.14669 2.44098,-6.14669 2.81521,0 3.24928,1.65059 3.2135,12.21973 -0.0404,11.93495 0.65112,12.20306 8.13693,3.15483 5.72118,-6.91529 9.01951,-9.07311 11.15705,-7.29911 1.77128,1.47003 0.83437,3.21752 -6.12074,11.41613 -4.3722,5.15392 -5.12345,6.55128 -4.01615,7.47026 0.91243,0.75725 9.47981,1.21182 25.95244,1.37698 23.7734,0.23836 24.61132,0.18051 25.22128,-1.7413 0.34701,-1.09332 1.87515,-4.03753 3.39587,-6.54269 1.52072,-2.50516 3.08855,-6.12983 3.48405,-8.05483 0.39551,-1.925 2.51713,-7.325 4.7147,-12 7.74745,-16.48153 8.89577,-19.14412 8.5882,-19.91339 -0.70853,-1.77212 -8.70848,-10.83591 -14.14088,-16.02135 -12.59858,-12.02584 -23.72093,-16.90113 -31.93473,-13.99803 -6.01953,2.12755 -8.23495,5.7328 -8.23495,13.40111 0,6.89347 1.40014,9.39442 6.83195,12.20332 6.97354,3.60616 12.60058,0.58069 12.64581,-6.79922 0.0254,-4.13795 1.88016,-6.17387 5.19217,-5.6992 3.54009,0.50735 5.05256,4.47935 3.14429,8.2574 -2.42815,4.80728 -6.28524,9.56936 -7.7508,9.56936 -0.73415,0 -2.62374,0.67223 -4.19911,1.49384 -3.14312,1.63925 -5.62152,1.91562 -6.78098,0.75616 -0.4125,-0.4125 -1.13354,-0.75 -1.60231,-0.75 -2.08579,0 -10.39494,-8.38331 -12.57684,-12.6891 -5.59879,-11.04868 -0.45019,-21.52258 12.63148,-25.69643 2.91878,-0.93127 4.92311,-0.76468 11.48802,0.95483 4.3738,1.1456 8.18275,2.40946 8.46434,2.80857 0.28159,0.39911 2.65919,2.15619 5.28355,3.90462 5.93497,3.95405 7.30932,5.07806 10.04776,8.21751 5.26163,6.03213 14.11886,13.96163 14.81521,13.26342 0.41877,-0.41988 1.21761,-3.23842 1.77522,-6.26342 1.26298,-6.85168 6.17096,-21.95214 10.56322,-32.5 1.83221,-4.4 4.52417,-12.05 5.98212,-17 1.45795,-4.95 4.20588,-13.95 6.10652,-20 4.17946,-13.30386 6.59538,-28.34754 5.30369,-33.02562 -1.10051,-3.98572 -6.73003,-9.24848 -13.40879,-12.5352 -4.32333,-2.12758 -6.1558,-2.41188 -14.34429,-2.22547 l -9.38776,0.21372 -5.61224,4.8808 c -8.61007,7.48794 -10.11223,10.21965 -10.11223,18.38931 0,10.12773 2.8977,14.97751 9.72214,16.27162 6.26796,1.18859 11.74817,-3.90415 14.22492,-13.21916 1.26032,-4.74003 3.65795,-5.67193 4.62987,-1.79952 1.26265,5.03079 -7.9053,20.31148 -13.43166,22.38723 -8.24377,3.09644 -12.70853,1.56432 -18.04528,-6.19238 -2.86618,-4.16585 -3.09999,-5.14256 -3.09999,-12.94978 0,-13.33299 3.8559,-21.5307 13.32813,-28.33582 10.77807,-7.74327 18.71889,-9.13335 30.82108,-5.39536 11.13756,3.44004 18.94304,11.15018 21.86946,21.60233 1.56309,5.58278 0.60753,12.48902 -3.93408,28.4333 -1.64497,5.775 -4.59587,16.125 -6.55757,23 -1.9617,6.875 -5.32936,17.9 -7.48369,24.5 -2.15433,6.6 -5.53503,17.175 -7.51266,23.5 -1.97763,6.325 -4.10066,12.50046 -4.71784,13.72325 -0.97521,1.93211 -0.63602,2.78329 2.59018,6.5 7.2503,8.35264 16.15325,19.98002 20.09699,26.24695 2.2,3.49599 5.32331,8.30787 6.9407,10.69307 l 2.9407,4.33673 h 14.38427 14.38428 l 0.52671,-2.63341 c 0.68527,-3.42621 8.11141,-11.87537 13.67849,-15.56285 l 4.37841,-2.90013 -2.11678,-2.56663 c -1.16423,-1.41164 -3.91678,-3.86924 -6.11678,-5.46133 -6.42533,-4.64987 -20.67983,-18.80544 -24.73947,-24.56777 -14.11246,-20.03153 -16.60943,-25.27896 -17.37693,-36.51808 -0.58771,-8.60616 -0.53784,-8.87492 2.38703,-12.86405 3.13581,-4.27681 13.1959,-12.3477 19.22471,-15.42337 11.52619,-5.88023 29.14296,-0.51558 34.09154,10.38153 2.46534,5.42884 2.41182,11.07311 -0.14421,15.20885 -1.65647,2.68022 -3.38528,3.75653 -8.87271,5.52387 -3.76243,1.21177 -7.61922,1.88657 -8.60988,1.50642 -2.35388,-0.90326 -1.11256,-2.11861 5.61584,-5.49831 6.49064,-3.26028 9.37863,-6.96809 9.37863,-12.04095 0,-3.11411 -0.63039,-4.3684 -3.37091,-6.70711 -5.59762,-4.77692 -9.20751,-6.29065 -15.08364,-6.325 -9.61611,-0.0562 -20.63822,6.25936 -25.58385,14.65929 -4.74861,8.06529 -3.95922,18.46418 2.21518,29.18128 2.47114,4.28925 5.05627,7.28932 20.85352,24.20078 3.29166,3.52383 6.89166,7.80567 8,9.5152 2.50814,3.86864 7.77381,8.27289 13.01515,10.886 4.97465,2.48014 14.4425,11.83266 16.70931,16.50577 0.93377,1.925 1.96406,5.1875 2.28954,7.25 0.74579,4.72597 -6.45933,4.30111 63.50115,3.74439 49.55202,-0.39432 52.59977,-0.55576 53.54054,-2.83606 0.69486,-1.68426 1.22984,-90.47449 0.64048,-106.30001 l -0.32182,-8.64168 -5.86007,-2.13669 c -3.79698,-1.38444 -8.14558,-4.15103 -12.35192,-7.85832 -3.57052,-3.14689 -8.60687,-7.48843 -11.1919,-9.64785 -2.58502,-2.15942 -5.20748,-5.10864 -5.82768,-6.55383 -1.55801,-3.63049 -16.56079,-16.66688 -25.62763,-22.26866 -13.32629,-8.2334 -19.9461,-10.81435 -30.83777,-12.02311 -9.79544,-1.08709 -9.89217,-1.07649 -14.42794,1.58165 -6.67185,3.90996 -11.17046,9.71663 -13.75499,17.75453 -2.97583,9.25486 -2.39152,14.23879 2.50241,21.34456 3.85737,5.60072 5.5363,6.55426 11.5812,6.57743 2.62685,0.0101 4.28384,-0.73884 6.307,-2.85057 2.93823,-3.06685 5.91536,-11.22881 4.9825,-13.6598 -0.39521,-1.02989 0.10886,-1.47598 1.66783,-1.47598 2.06583,0 2.19818,0.35799 1.756,4.75 -0.62723,6.23015 -4.27718,13.75845 -7.93242,16.36121 -2.07854,1.48005 -4.42475,2.07231 -8.13257,2.05291 -4.90584,-0.0257 -5.45703,-0.29702 -9.40501,-4.63032 -2.30657,-2.53168 -5.40059,-7.15408 -6.8756,-10.27199 -2.34389,-4.95458 -2.60659,-6.4747 -2.08472,-12.06328 1.1776,-12.61063 9.23106,-23.76587 21.2018,-29.36765 9.28686,-4.34585 14.86233,-4.67866 23.79588,-1.42041 4.05115,1.47753 7.81035,2.55212 8.35379,2.38798 0.54344,-0.16415 3.24532,1.15505 6.00418,2.93156 2.75886,1.7765 5.90056,3.5765 6.98157,4 2.93172,1.14853 7.63389,5.06431 14.0667,11.71416 15.41068,15.93064 22.14286,22.55457 22.9098,22.54142 0.4622,-0.008 2.07354,-2.25041 3.58075,-4.98331 2.56678,-4.6541 8.6452,-10.07847 14.75961,-13.17142 1.375,-0.69554 2.62697,-1.33149 2.78215,-1.41322 0.15518,-0.0817 -3.17155,-3.47164 -7.39273,-7.53312 -12.20718,-11.74536 -18.07035,-22.36496 -21.9629,-39.78002 -2.356,-10.54063 -0.81154,-21.30087 5.01417,-34.93368 1.95762,-4.581049 3.55931,-8.968549 3.55931,-9.749999 0,-0.78145 0.38166,-1.42082 0.84813,-1.42082 0.46646,0 1.70396,-1.90712 2.75,-4.23805 1.04603,-2.33093 5.42301,-7.7387 9.72663,-12.01726 9.67306,-9.616764 11.78275,-15.008684 7.70987,-19.704764 -1.59621,-1.84044 -1.84717,-3.13705 -1.33607,-6.90301 l 0.6293,-4.63692 -4.91393,5.71055 c -5.65978,6.57731 -12.65725,10.94613 -14.53104,9.07235 -1.65844,-1.65845 0.91557,-5.42663 8.49937,-12.44248 5.24825,-4.85522 5.96005,-5.92116 5.00824,-7.5 -0.97157,-1.61162 -2.33561,-1.81557 -10.97198,-1.64056 -10.36028,0.20994 -11.37378,-0.18031 -11.40321,-4.39084 -0.0215,-3.0803 1.30964,-3.56788 6.16874,-2.25946 2.62279,0.70625 6.71638,0.86831 10.77307,0.4265 l 6.54288,-0.71257 -8.34393,-7.77198 c -7.52006,-7.00458 -8.23244,-7.98029 -7.21481,-9.88174 0.62101,-1.16037 1.56717,-2.1097702 2.10258,-2.1097702 1.35396,0 8.62994,5.3698202 13.64742,10.0720702 2.30519,2.16036 4.66769,3.92793 5.25,3.92793 0.67652,0 1.05874,-3.72165 1.05874,-10.30887 0,-7.0462402 0.42478,-10.8897802 1.34216,-12.1443802 1.28153,-1.75259005 1.41707,-1.72859005 3,0.53137 1.26936,1.81227 1.65784,4.65803 1.65784,12.1443902 0,5.37762 0.34377,9.77749 0.76393,9.77749 0.42016,0 1.88266,-1.83407 3.25,-4.07572 1.36734,-2.24165 4.57136,-5.61665 7.12005,-7.5 10.78473,-7.9693702 11.41784,-0.83438 0.89805,10.12088 -3.31762,3.45496 -6.03203,6.59252 -6.03203,6.97237 0,0.37985 3.4875,0.41669 7.75,0.08186 9.93451,-0.78037 14.64031,0.21504 15.06955,3.18764 0.33827,2.34259 0.12871,2.43054 -6.31955,2.65212 -2.2,0.07559 -6.925,0.25771 -10.5,0.40471 l -6.5,0.26725 2.95905,2.19445 c 4.54358,3.36953 14.54095,13.83198 14.54095,15.21739 0,0.67821 -1.0125,1.90771 -2.25,2.73223 -2.08468,1.38898 -2.5529,1.282 -6.37262,-1.45607 -2.26744,-1.62535 -5.61358,-4.94507 -7.43585,-7.37715 -1.82228,-2.43208 -3.64928,-4.42196 -4.06,-4.42196 -1.4479,0 -2.17942,4.6135 -2.40394,15.16104 l -0.22694,10.661034 4.95066,4.83896 c 5.84282,5.71101 14.74126,18.69908 18.25569,26.645809 4.00529,9.05668 6.82406,24.71253 6.24635,34.69316 -0.83341,14.39819 -8.46944,32.11649 -18.59773,43.15332 -6.36621,6.93728 -6.92629,7.84302 -4.85562,7.85226 4.66918,0.0208 9.21138,2.61165 15.2923,8.72257 l 6.62405,6.65672 4.17702,-4.44243 c 6.8179,-7.25113 20.68854,-19.98823 27.6572,-25.39699 19.45376,-15.09913 25.44655,-17.45465 37.85023,-14.87739 9.90571,2.05824 9.78931,1.99578 17.66171,9.47385 5.8683,5.57428 7.8188,8.21706 9.898,13.41075 3.4929,8.72516 3.3246,13.27677 -0.8456,22.86975 -3.7086,8.53108 -6.5588,11.84143 -12.2387,14.21466 -3.2784,1.3698 -4.0486,1.35877 -7.9026,-0.1131 -7.04954,-2.69224 -14.40551,-13.09942 -14.74259,-20.85771 -0.1533,-3.52819 0.11814,-4.16626 1.7723,-4.16626 1.52283,0 2.00292,0.77136 2.17838,3.5 0.72725,11.30958 9.04271,18.41304 18.39071,15.71019 3.6979,-1.06922 4.9129,-2.07092 6.9776,-5.75243 2.1311,-3.80006 2.4814,-5.63808 2.3739,-12.45776 -0.1531,-9.71089 -1.4547,-12.96514 -8.6188,-21.54785 -4.8452,-5.80457 -6.1554,-6.7567 -11.54262,-8.38781 -11.35817,-3.43898 -22.22232,-0.19521 -35.71571,10.66385 -4.81685,3.87645 -16.46166,14.89875 -25.87735,24.494 -17.05411,17.37935 -27.13923,25.47809 -34.13117,27.40866 l -3.49212,0.96422 0.50707,14.70247 c 0.27888,8.08635 0.71043,34.01707 0.95899,57.62381 0.35147,33.37937 0.74066,43.21008 1.75065,44.22008 1.61132,1.61131 18.4886,2.20721 73.1808,2.58384 l 39.89366,0.27473 1.357,-3.90306 c 1.7005,-4.89108 12.8723,-18.73972 18.2741,-22.6528 2.2342,-1.61847 5.0791,-4.51243 6.3219,-6.43102 1.2428,-1.9186 2.7379,-3.49393 3.3223,-3.50074 2.0281,-0.0236 16.7244,-14.45495 18.1187,-17.79208 0.7711,-1.84542 3.0996,-5.23742 5.1744,-7.5378 4.823,-5.34721 7.4076,-9.89029 10.4545,-18.37662 2.0754,-5.78042 2.3231,-7.68193 1.6442,-12.62011 -1.3532,-9.84285 -9.5954,-19.88371 -19.0642,-23.22451 -5.0388,-1.77778 -12.5278,-1.87084 -15.8166,-0.19652 -3.1318,1.59431 -7.9982,10.3172 -8.0407,14.41246 -0.048,4.63534 5.8321,9.3228 11.6949,9.3228 3.8668,0 4.2722,0.23243 4.2722,2.44937 0,2.36165 -0.2044,2.43448 -5.7084,2.03367 -9.1275,-0.66466 -11.0649,-1.37355 -13.1298,-4.80425 -1.0523,-1.74833 -2.199,-5.45998 -2.548,-8.24811 -0.5507,-4.39817 -0.2318,-5.85449 2.4091,-11 4.5174,-8.80161 7.3491,-10.62226 16.7683,-10.78112 7.1065,-0.11985 8.3866,0.19346 16.3828,4.00975 6.8848,3.2858 9.1657,4.93403 11.0575,7.99022 3.9011,6.30246 5.8381,12.71479 5.884,19.47854 0.0515,7.58933 -1.946,13.90604 -7.3906,23.37193 -2.2145,3.85 -5.1106,8.8921 -6.4358,11.20466 -1.3252,2.31256 -7.2198,9.14371 -13.0993,15.18033 -5.8794,6.03661 -11.932,12.40865 -13.4503,14.16007 l -2.7604,3.18441 4.3649,3.84211 c 4.7458,4.17748 12.1415,14.86937 13.1596,19.02474 l 0.6361,2.59632 15.6801,0.65035 c 19.0427,0.78981 30.9837,0.81676 33.7412,0.0762 2.0316,-0.54566 2.078,-1.34784 3.2557,-56.23635 0.657,-30.62553 0.9497,-58.38279 0.6504,-61.68279 -0.6764,-7.45671 -0.614,-15.9992 0.1474,-20.17183 0.3183,-1.7445 0.2759,-4.55077 -0.0943,-6.23616 -0.6629,-3.01816 -0.7163,-3.04194 -3.547,-1.57817 -3.5119,1.8161 -19.6622,2.04061 -23.4262,0.32564 -3.0871,-1.4066 -3.4371,-5.29274 -0.6127,-6.8043 1.0638,-0.56935 4.9314,-1.03518 8.5947,-1.03518 14.9975,0 29.6395,-7.96975 32.9492,-17.93446 1.4207,-4.27732 2.0693,-5.06554 4.1679,-5.06554 10.4037,0 7.3602,11.32685 -5.8984,21.95163 -6.2176,4.98244 -6.3988,5.25782 -5.8169,8.83807 0.3304,2.03246 0.2802,7.29874 -0.1114,11.70284 -0.3917,4.4041 -0.7341,27.58246 -0.761,51.50746 -0.0269,23.925 -0.2146,48.45 -0.4171,54.5 -0.2026,6.05 -0.1411,14.6769 0.1366,19.17088 l 0.505,8.17088 37.5129,-0.004 c 20.6321,-0.002 38.5802,-0.4101 39.8847,-0.90606 1.3044,-0.49596 3.5402,-1.11363 4.9683,-1.3726 1.4281,-0.25896 2.7739,-0.64816 2.9906,-0.86489 0.2167,-0.21672 -2.3591,-3.84308 -5.7241,-8.05858 -5.9515,-7.45591 -6.9644,-10.63532 -3.3881,-10.63532 1.6363,0 7.0791,4.03277 13.159,9.75 1.9009,1.7875 3.7617,3.24674 4.135,3.24276 0.3733,-0.004 0.717,-4.51973 0.7638,-10.035 0.0899,-10.61179 1.1674,-13.66688 3.8494,-10.9149 1.4412,1.47881 4.5656,14.76521 4.5656,19.41498 0,1.39819 0.207,2.54216 0.4599,2.54216 0.253,0 2.5676,-2.25321 5.1435,-5.00714 5.4664,-5.84399 10.8316,-9.42364 12.922,-8.62149 3.0457,1.16876 1.4098,4.8902 -5.1254,11.65952 -3.7483,3.8825 -6.3022,7.31836 -5.9107,7.95179 0.44,0.71195 3.8445,1.03444 9.4128,0.89163 9.705,-0.24891 11.0979,0.19821 11.0979,3.56226 0,3.74359 -1.812,4.30855 -11.7502,3.66367 -5.0877,-0.33013 -9.2502,-0.21636 -9.25,0.25283 1e-4,0.46919 2.0294,3.11003 4.5095,5.86853 5.1583,5.73722 7.9859,11.04546 7.1057,13.33925 -0.8318,2.16764 -4.4676,1.00612 -7.4866,-2.39166 -8.076,-9.08955 -10.1059,-11.16919 -10.9022,-11.16919 -0.4899,0 -0.6814,2.52502 -0.4254,5.61116 0.5363,6.46697 -1.5179,16.34307 -3.5625,17.12765 -3.1931,1.22529 -4.4773,-2.20655 -4.3279,-11.56553 0.0844,-5.29407 -0.2834,-9.28576 -0.8903,-9.66085 -0.5688,-0.35156 -1.2754,-0.0107 -1.5702,0.75752 -0.2948,0.76819 -1.0791,1.41285 -1.7429,1.43257 -0.6639,0.0197 -4.3054,2.13692 -8.0923,4.7049 -3.7869,2.56798 -7.3869,4.50206 -8,4.29795 -3.4479,-1.14785 -0.5323,-9.00535 4.8706,-13.12633 1.9331,-1.47445 3.5147,-2.37782 3.5147,-2.00749 0,0.37034 0.675,0.11314 1.5,-0.57155 0.825,-0.68469 1.5,-1.63979 1.5,-2.12244 0,-0.48977 -18.9542,-0.87756 -42.893,-0.87756 -33.4574,0 -42.9716,0.27498 -43.25,1.25 -0.4506,1.57784 -0.1315,37.40937 0.5499,61.75 0.2849,10.175 0.6291,35.26828 0.7649,55.76284 0.2417,36.4736 0.2033,37.30653 -1.8156,39.3254 -1.9151,1.91511 -2.1803,1.94483 -3.7094,0.41573 -1.9068,-1.90683 -2.0031,-6.32052 -2.1053,-96.50397 -0.0346,-30.525 -0.45,-56.95348 -0.9232,-58.72995 l -0.8603,-3.22995 -25.129,0.26547 -25.129,0.26548 -0.3311,2.86701 c -0.6051,5.23891 -11.1196,17.48909 -17.4189,20.29439 -1.5125,0.67357 -2.75,1.84744 -2.75,2.60861 0,1.9919 4.3412,7.17341 14.0454,16.7643 8.734,8.63188 10.9856,11.2155 12.9134,14.81767 0.6126,1.14468 3.8551,5.34278 7.2055,9.32911 6.122,7.28395 8.8168,12.21373 11.4722,20.98672 1.4103,4.65949 1.377,4.86045 -1.9896,12 -4.0236,8.53288 -14.2404,19.97957 -19.8648,22.25622 -6.5356,2.6455 -14.6622,1.96479 -23.2465,-1.94722 -7.3199,-3.33576 -7.673,-3.65881 -10.4743,-9.58218 -3.086,-6.5253 -3.1484,-8.89463 -0.4006,-15.19792 2.6974,-6.18748 13.9292,-10.66317 19.405,-7.73258 1.0639,0.56935 1.9343,1.74545 1.9343,2.61355 0,1.30068 -0.7808,1.46128 -4.438,0.91284 -7.782,-1.16698 -14.562,3.91748 -14.562,10.92038 0,5.84296 4.1399,10.95339 11.784,14.54652 3.7885,1.78083 5.1663,1.90958 11.7235,1.09551 8.3052,-1.0311 12.4748,-3.14825 17.7925,-9.03426 5.8616,-6.48814 8.3474,-18.90269 5.263,-26.28471 -1.8794,-4.49793 -10.3988,-15.80501 -11.9084,-15.80501 -0.6468,0 -3.138,-2.45887 -5.5361,-5.46417 -2.3981,-3.00529 -5.4044,-6.14838 -6.6807,-6.98466 -1.2764,-0.83627 -3.7622,-3.66489 -5.5242,-6.28583 -1.7619,-2.62094 -4.5056,-6.1546 -6.097,-7.85259 -1.5914,-1.698 -3.6637,-4.50647 -4.605,-6.24106 -0.9414,-1.73459 -5.1224,-6.64533 -9.2912,-10.91275 -8.683,-8.88841 -12.9204,-15.50985 -12.9204,-20.18971 v -3.25505 l -38.25001,0.59598 c -21.0375,0.32778 -46.8407,0.86607 -57.34045,1.19618 l -19.09046,0.6002 -0.69303,53.64673 c -0.38117,29.5057 -0.94999,55.26867 -1.26406,57.25104 -0.56694,3.57856 -0.54196,3.60821 3.49624,4.14985 5.76708,0.77353 11.42945,3.7981 12.89446,6.88762 0.68898,1.45298 5.33653,6.40298 10.32788,11 4.99136,4.59702 13.43848,12.40822 18.77139,17.35822 13.70514,12.72109 20.63354,17.85894 27.64803,20.50278 1.65,0.6219 5.67378,2.4877 8.94174,4.14621 5.4397,2.7607 6.49586,2.95966 12.5,2.35482 8.13447,-0.81944 10.06597,-1.8397 15.16507,-8.01028 5.1805,-6.26912 6.7887,-9.42787 7.4977,-14.7263 1.0613,-7.9313 -5.27,-17.64945 -13.8224,-21.21655 -7.64805,-3.18991 -10.14788,-1.17897 -11.87633,9.55372 -0.562,3.48974 -1.20984,6.53299 -1.43964,6.76279 -0.22979,0.2298 -1.15182,-0.19136 -2.04895,-0.93591 -3.55186,-2.94779 1.08251,-17.58696 6.44551,-20.36028 5.94303,-3.07326 11.82491,-1.55058 18.97491,4.91219 4.8738,4.40532 7.1009,9.48745 7.8043,17.80934 0.8265,9.77662 -1.3558,14.75532 -10.2222,23.32144 -9.4184,9.0994 -17.19853,11.20273 -28.48821,7.70165 -2.98732,-0.92642 -5.6565,-1.75278 -5.9315,-1.83637 -3.36267,-1.02213 -6.27386,-3.04252 -13.5,-9.36914 -1.1,-0.96307 -3.35,-2.67634 -5,-3.80727 -1.65,-1.13093 -8.3004,-5.82422 -14.77866,-10.42954 -6.47827,-4.60531 -14.56576,-10.33448 -17.9722,-12.73148 l -6.19353,-4.35817 -1.52624,2.35817 c -2.22249,3.43395 -7.5,7.99528 -12.56302,10.85818 -2.43169,1.375 -4.50722,2.725 -4.61229,3 -0.29955,0.78401 5.09291,8.41633 11.4327,16.18152 8.4994,10.41032 10.59627,14.57358 13.89152,27.58105 3.15033,12.43541 3.88515,24.35353 1.88188,30.52224 -0.57427,1.76835 -1.92023,6.14019 -2.99101,9.71519 -6.56516,21.91893 -14.12657,33.53642 -24.25606,37.26746 -1.48499,0.54697 -1.62561,1.91377 -1.17486,11.41875 0.28163,5.93857 0.70998,10.99533 0.95189,11.23724 0.24191,0.24192 1.8956,-0.91085 3.67486,-2.56171 5.12256,-4.75287 15.33784,-10.72525 16.79953,-9.82187 2.01967,1.24823 0.71706,4.30597 -4.17042,9.7896 -2.80826,3.15079 -6.43696,6.41702 -8.06378,7.25828 -4.531,2.34307 -2.95545,3.69316 4.72211,4.04637 10.78376,0.49612 15.2168,1.32209 15.84215,2.95172 0.32634,0.85044 -0.11808,1.75457 -1.03549,2.10661 -2.34946,0.90157 -10.2133,0.92323 -15.13438,0.0417 -6.69791,-1.19984 -6.67195,1.25294 0.0801,7.56754 5.36438,5.01683 7.89409,9.90002 6.07198,11.72099 -1.31912,1.3183 -6.66125,-1.64731 -11.92659,-6.62089 -2.56299,-2.42098 -4.95028,-4.40201 -5.30509,-4.40228 -0.3548,-2.8e-4 -0.48968,4.00005 -0.29972,8.88961 0.27659,7.11953 0.005,9.41002 -1.36501,11.50051 -1.99843,3.04998 -2.74377,3.20415 -4.60793,0.95307 z m 3.94398,-32.09269 c -0.26449,-2.29867 -0.72672,-2.69206 -2.81642,-2.39694 -4.8982,0.69174 -4.30191,5.14694 0.68887,5.14694 2.0762,0 2.39636,-0.41383 2.12755,-2.75 z m -7.63729,-49.84356 c -0.17648,-5.27892 -0.59326,-9.32564 -0.92618,-8.99272 -0.33293,0.33292 -2.55104,2.26385 -4.92913,4.29094 -2.3781,2.0271 -4.32382,4.08934 -4.32382,4.58276 0,2.1397 7.75514,9.66858 10,9.70823 0.275,0.005 0.35561,-4.31028 0.17913,-9.58921 z m 13.78006,6.97444 c 3.48807,-2.93502 6.74136,-8.38088 5.00663,-8.38088 -0.59705,0 -3.46458,-2.25 -6.3723,-5 -2.90772,-2.75 -5.47162,-5 -5.69756,-5 -0.52862,0 0.0282,15.78768 0.66128,18.75 0.63167,2.95562 2.58453,2.84303 6.40195,-0.36912 z M 344.8572,588.1995 c 0.008,-8.70909 -0.22585,-10.58347 -1.12434,-9 -0.62417,1.1 -4.57775,5.375 -8.78574,9.5 -10.62516,10.41562 -10.42976,10.07922 -8.51719,14.66262 0.8807,2.11056 2.27527,4.86778 3.09904,6.12715 l 1.49778,2.28978 6.90997,-6.28978 6.90998,-6.28977 z m 25.78011,14.11589 c 1.34444,-3.7378 2.29746,-6.90564 2.11782,-7.03965 -0.17963,-0.13401 -3.25302,-2.68098 -6.82974,-5.65995 -3.57673,-2.97896 -8.41423,-6.9166 -10.75,-8.75032 l -4.24687,-3.33403 v 11.14305 c 0,6.97842 0.36415,10.91799 0.97434,10.54087 0.53589,-0.3312 4.00562,1.89817 7.71052,4.95414 3.7049,3.05597 7.15093,5.41807 7.65784,5.2491 0.5069,-0.16897 2.02164,-3.36541 3.36609,-7.10321 z M 340.8876,575.29087 c 0.80249,-1.15026 2.03999,-2.68601 2.75,-3.4128 1.19587,-1.22413 1.98352,-17.17857 0.84808,-17.17857 -1.79114,0 -27.57084,17.66497 -27.54238,18.87281 0.0284,1.20407 3.0465,13.65365 4.09805,16.9042 l 1.0601,3.27701 8.66354,-8.18564 c 4.76494,-4.50211 9.32011,-9.12676 10.12261,-10.27701 z m 36.36017,3.82593 0.61511,-6.08271 -11.21718,-7.24478 c -6.16945,-3.98464 -12.22968,-7.93981 -13.46718,-8.78927 l -2.25,-1.54448 0.0124,7.87197 0.0124,7.87197 3.63259,2.5 c 1.99793,1.375 4.3642,2.95 5.25837,3.5 0.89417,0.55 2.96643,1.93927 4.60502,3.08727 1.6386,1.14801 3.76676,2.37138 4.72926,2.71862 0.9625,0.34724 1.75,1.33496 1.75,2.19495 0,0.85998 1.0125,1.94226 2.25,2.40506 2.7342,1.02253 3.20722,0.0358 4.06925,-8.4886 z m 0.14186,-14.1673 c -1.4045,-8.36647 -2.46473,-10.03816 -10.76924,-16.98013 -4.50553,-3.76629 -9.87937,-8.09067 -11.94187,-9.60973 l -3.75,-2.76192 -0.0743,4.30089 c -0.0409,2.36549 -0.24659,5.20553 -0.45715,6.31121 -0.5346,2.80723 0.24791,3.68946 6.7186,7.57481 7.90637,4.74741 15.93803,10.34402 18.31286,12.76073 2.67207,2.7192 2.68387,2.7096 1.96111,-1.59586 z m -37.21111,-14.16137 c 4.72361,-3.49601 4.75,-3.548 4.75,-9.35862 v -5.84308 l -3.1116,1.80653 c -1.71138,0.9936 -4.97388,3.40624 -7.25,5.36142 -2.27612,1.95518 -5.6009,4.57332 -7.3884,5.81809 -1.7875,1.24477 -3.25,2.87458 -3.25,3.6218 0,0.74722 -0.73849,1.50408 -1.64109,1.68191 -1.4689,0.2894 -4.30193,7.1708 -4.34373,10.55089 -0.0149,1.20203 12.8203,-6.67112 22.23482,-13.63894 z m -2.63153,-15.93107 7.11847,-5.23694 0.53785,-7.21031 c 0.61252,-8.21129 -0.46707,-10.57173 -2.55753,-5.59191 -0.78075,1.85988 -3.87474,5.87125 -6.87553,8.91416 -4.83675,4.90465 -11.84173,15.70855 -11.84173,18.26371 0,0.51761 1.4625,-0.14854 3.25,-1.48033 1.7875,-1.3318 6.45331,-4.77807 10.36847,-7.65838 z m 28.25398,1.17575 c -1.78127,-3.20832 -4.61877,-7.49704 -6.30556,-9.53049 -1.68679,-2.03345 -4.19189,-5.16917 -5.56689,-6.96826 l -2.5,-3.27108 -0.58133,5.46826 c -0.57974,5.45322 -0.56874,5.48056 4,9.93974 7.29826,7.12327 13.54738,12.13037 13.88294,11.1237 0.17023,-0.51071 -1.14788,-3.55356 -2.92916,-6.76187 z m -20.07775,-43.04647 c 0.21567,-4.43084 -0.11956,-6.46884 -1.25,-7.59928 -1.69379,-1.69379 -2.09304,-3.14449 -0.6138,-2.23027 0.95776,0.59193 2.61557,-1.24416 1.83139,-2.02833 -0.70799,-0.70799 -6.76229,1.68145 -6.76229,2.66887 0,0.49619 0.43844,0.90217 0.97432,0.90217 0.53588,0 1.67453,1.35406 2.53035,3.00903 2.66371,5.15105 -1.24695,9.18005 -6.84466,7.05181 -3.7985,-1.44419 -4.52706,-5.509 -1.55453,-8.67312 l 2.35008,-2.50155 -4.71834,2.63714 c -2.59509,1.45042 -4.92893,2.97787 -5.18633,3.39434 -1.08767,1.7599 5.1272,7.03994 9.83875,8.35881 8.39276,2.34934 9.06521,1.99258 9.40506,-4.98962 z m 15.34326,4.29998 c 3.87496,-1.61906 5.29061,-3.01865 6.26018,-6.18919 0.53455,-1.748 -0.39825,-2.8015 -5.53389,-6.25 -8.00912,-5.37799 -8.86425,-5.32904 -8.86425,0.50736 0,4.44633 0.082,4.5808 1.82874,3 2.13913,-1.93589 6.25541,-2.17084 7.97126,-0.45499 1.90147,1.90147 1.45796,6.59158 -0.73426,7.76482 -2.77493,1.4851 -5.6809,1.27716 -7.49431,-0.53625 -1.42857,-1.42857 -1.57143,-1.28235 -1.57143,1.60841 0,3.5258 0.87415,3.58486 8.13796,0.54984 z m -1.13796,-5.70485 c 0,-0.55 -0.45,-0.72189 -1,-0.38197 -0.55,0.33992 -1,1.06803 -1,1.61803 0,0.55 0.45,0.72189 1,0.38197 0.55,-0.33992 1,-1.06803 1,-1.61803 z M 339.69935,490.512 c -0.61807,-1.85422 -2.77083,-2.16176 -2.77083,-0.39583 0,0.87083 0.7125,1.58333 1.58333,1.58333 0.87084,0 1.40521,-0.53437 1.1875,-1.1875 z m -212.3893,-97.8125 c 1.98618,-2.475 4.53808,-6.525 5.67087,-9 1.1328,-2.475 4.77655,-9.9 8.09723,-16.5 l 6.03761,-12 -18.34362,-0.63807 c -23.24162,-0.80844 -22.86102,-0.88557 -21.67506,4.39276 0.50666,2.25498 2.21679,7.28266 3.80028,11.17263 1.58349,3.88998 3.17677,8.64768 3.5406,10.57268 0.57388,3.03629 4.88053,15.08059 6.17246,17.26238 0.72167,1.21874 2.82327,-0.43201 6.69963,-5.26238 z m 370.80178,-24.62703 c 3.5256,-2.44327 6.266,-7.45899 7.0333,-12.87297 0.2682,-1.89278 -0.3265,-2.00725 -11.0923,-2.13527 l -11.3757,-0.13528 0.5708,4.81966 c 0.314,2.65081 1.5293,6.92367 2.7008,9.49525 2.016,4.4253 2.2986,4.64187 5.28,4.04559 1.7326,-0.34651 4.83,-1.79415 6.8831,-3.21698 z m -9.7909,-2.88962 c -2.7006,-2.70067 -2.5849,-5.356 0.3809,-8.73335 3.2786,-3.7337 9.2409,-1.09835 9.2114,4.07143 -0.0185,3.23801 -0.797,4.51717 -3.669,6.02887 -2.9328,1.54374 -3.0365,1.51982 -5.9233,-1.36695 z M 216.5256,361.6995 c 3.27868,-8.99319 3.27445,-9.0065 -2.84708,-8.96086 l -5.25,0.0391 3.25,1.41259 c 2.62248,1.13983 3.25,1.98736 3.25,4.38943 0,3.76807 -2.57986,6.43317 -5.65783,5.84478 -2.96172,-0.56617 -3.00167,0.56697 -0.0922,2.61401 3.56517,2.50834 4.81804,1.59789 7.34708,-5.33909 z m -9.98159,-7.12761 c 1.66302,-1.83762 1.63584,-1.89521 -0.69226,-1.46686 -1.33277,0.24522 -3.46452,0.47929 -4.73721,0.52016 l -2.31399,0.0743 2.2893,4.07327 2.28931,4.07326 0.71693,-2.68071 c 0.39432,-1.4744 1.49588,-3.54144 2.44792,-4.59343 z m 4.58451,3.92761 c -0.93333,-0.93333 -1.47592,-0.92408 -2.44164,0.0416 -0.98886,0.98886 -0.93966,1.42828 0.24164,2.15836 2.00534,1.23937 3.82235,-0.57765 2.2,-2.2 z M 36.94377,355.19161 c 2.83666,-1.46689 3.25522,-4.47222 0.62776,-4.50742 -0.67317,-0.009 -0.56929,-0.37859 0.25271,-0.89908 2.13551,-1.3522 0.50971,-4.08561 -2.43008,-4.08561 -5.97302,0 -8.23013,4.03584 -4.90895,8.77749 1.84055,2.62775 2.5971,2.71146 6.45856,0.71462 z m 638.98476,-4.99211 c 1.8723,-2.25593 -0.2814,-4.25909 -3.9933,-3.7143 -3.3871,0.49713 -4.4547,1.60456 -3.6267,3.76219 0.7318,1.90702 6.0252,1.87376 7.62,-0.0479 z m -530.3726,-4.28387 c 2.03793,-0.20704 1.95843,-0.55978 -1.88987,-8.38585 -2.20951,-4.49334 -5.30514,-10.00584 -6.87919,-12.25 -1.57405,-2.24415 -5.2146,-7.53928 -8.09012,-11.76696 -2.87552,-4.22767 -5.41233,-7.50255 -5.63736,-7.27752 -1.12357,1.12357 -13.12603,29.20389 -13.12827,30.7142 -0.001,0.9625 -0.40858,1.75 -0.90477,1.75 -1.00805,0 -3.29779,5.87115 -2.67729,6.86487 0.35751,0.57255 34.05681,0.87447 39.20687,0.35126 z m 358.1788,-2.96613 c -1.8226,-6.61911 -5.7383,-13.27367 -8.4077,-14.28859 -3.6994,-1.40651 -3.8157,-1.34669 -6.3961,3.28859 -1.3012,2.3375 -3.1628,5.375 -4.1369,6.75 -0.9742,1.375 -2.0662,3.7375 -2.4267,5.25 l -0.6556,2.75 h 11.5278 11.5278 z m -14.9454,0.81052 -2.3608,-1.93948 2,-3.72659 c 2.9632,-5.52129 4.8626,-6.34187 7.9551,-3.43667 3.6028,3.38471 3.426,7.53522 -0.4054,9.51654 -3.7823,1.95588 -4.3438,1.92355 -7.1889,-0.4138 z m 5.4521,-5.14765 c -1.3279,-1.32782 -2.7993,0.49104 -1.7591,2.17426 0.4839,0.78285 0.9762,0.78285 1.7591,0 0.7828,-0.78284 0.7828,-1.39142 0,-2.17426 z m -287.31291,5.19412 c 0,-0.49116 -0.675,-1.15203 -1.5,-1.46862 -0.88558,-0.33983 -1.5,-1.84147 -1.5,-3.666 0,-3.83994 -1.36944,-3.12869 -4.03461,2.09548 l -2.00604,3.93215 h 4.52033 c 2.48617,0 4.52032,-0.40186 4.52032,-0.89301 z m 10.52758,-2.85699 c -0.37908,-1.5125 -1.61117,-4.89421 -2.73797,-7.51492 -1.63755,-3.8086 -2.32175,-4.53833 -3.40905,-3.63596 -1.11527,0.92559 -0.91179,1.48178 1.12956,3.0875 2.90607,2.28592 3.27771,6.28535 0.83489,8.98464 -1.5712,1.73616 -1.48977,1.82874 1.60841,1.82874 3.06049,0 3.22054,-0.17099 2.57416,-2.75 z m -7.21471,-4.33713 c -1.32782,-1.32782 -2.79931,0.49104 -1.75902,2.17426 0.48382,0.78285 0.97617,0.78285 1.75902,0 0.78284,-0.78284 0.78284,-1.39142 0,-2.17426 z M 361.42852,212.14613 c 1.1,-0.41892 3.9044,-1.8538 6.232,-3.18862 4.2007,-2.40901 4.22103,-2.44817 2.7487,-5.29534 -2.23324,-4.31861 -9.81218,-9.15482 -13.75079,-8.77453 -2.7129,0.26194 -3.28186,0.76557 -3.55448,3.14633 -0.17852,1.55896 -0.0673,3.5049 0.24712,4.3243 0.50044,1.30411 0.76777,1.29377 2.1445,-0.083 2.44796,-2.44795 6.36632,-3.071 8.14259,-1.29474 1.91163,1.91164 2.00332,6.45867 0.16536,8.2009 -2.91981,2.76775 -5.7227,2.76125 -8.50366,-0.0197 -1.62134,-1.62134 -2.40969,-2.00456 -2.01665,-0.98031 0.35492,0.9249 0.64531,2.73842 0.64531,4.03004 0,2.45218 0.91027,2.44425 7.5,-0.0654 z m -14.96521,-8.87119 c -0.45257,-5.43313 -1.13947,-8.57407 -1.87456,-8.5717 -1.98583,0.006 -7.47838,3.78795 -8.63159,5.94275 -0.60445,1.12943 -1.91343,2.05351 -2.90884,2.05351 -0.9954,0 -2.6611,0.94064 -3.70154,2.09032 -1.85633,2.05122 -1.85565,2.11668 0.0361,3.5 2.92108,2.13594 5.46724,1.82605 4.83581,-0.58855 -0.761,-2.91007 2.27642,-7.00177 5.19766,-7.00177 4.00794,0 6.14882,6.39678 3.01213,9 -0.825,0.68469 -1.5,1.60849 -1.5,2.05289 0,1.08359 4.27216,1.73825 5.37456,0.8236 0.48101,-0.39909 0.55311,-4.58456 0.16023,-9.30105 z m 11.75536,-27.57544 c 2.00343,0 9.33962,-9.91398 12.31545,-16.64286 2.65654,-6.0069 2.37501,-6.00726 -5.1056,-0.006 -11.39397,9.14009 -12.50318,10.57276 -12.46673,16.10223 l 0.0333,5.04705 1.87702,-2.25 c 1.03236,-1.2375 2.53833,-2.25 3.34659,-2.25 z m -12.8862,-3.63357 0.66902,-6.13357 -8.03649,-4.71147 c -4.42006,-2.59131 -8.03648,-5.10833 -8.03648,-5.59338 0,-1.18306 -4.91113,-4.35021 -5.63036,-3.63098 -1.24373,1.24372 5.53639,11.49029 12.51468,18.91304 4.06137,4.32004 7.48923,7.72757 7.61746,7.57228 0.12823,-0.15529 0.53421,-3.04246 0.90217,-6.41592 z m 0.57808,-17.11643 c -0.0179,-5.73743 -0.0283,-5.75692 -4.75,-8.91518 -2.60262,-1.74085 -8.33203,-5.66326 -12.73203,-8.71647 -4.4,-3.05321 -8.3375,-5.56637 -8.75,-5.58482 -1.01832,-0.0455 -0.94289,1.97471 0.28628,7.66725 0.91728,4.24808 1.51222,5.02876 5.18066,6.79797 2.27941,1.09932 5.30058,2.9958 6.71372,4.21439 2.4468,2.10997 13.2929,10.14868 13.81934,10.24237 0.1375,0.0245 0.24191,-2.54301 0.23203,-5.70551 z m 18.01797,-0.86275 c 13.05043,-9.20089 13.0277,-9.17459 13.51726,-15.63725 0.23957,-3.1625 0.20536,-5.75 -0.076,-5.75 -1.20655,0 -6.41988,3.83341 -12.83248,9.43582 -3.79018,3.31132 -7.84018,6.49082 -9,7.06555 -2.2533,1.1166 -3.18429,5.06939 -2.15753,9.16036 0.69839,2.78257 0.32388,2.93432 10.54877,-4.27448 z m -1.3492,-15.65451 c 3.34632,-2.98587 7.75629,-6.70419 9.79991,-8.26294 l 3.71569,-2.8341 -0.69818,-7.06785 c -0.38401,-3.88732 -1.09644,-7.21785 -1.5832,-7.40118 -0.48676,-0.18334 -0.89191,-1.08334 -0.90033,-2 -0.0492,-5.35343 -1.94532,-4.03693 -11.46074,7.95726 l -9.75306,12.29375 0.60586,5.04116 c 0.33323,2.77264 0.60978,6.06949 0.61456,7.32634 0.0113,2.97437 1.58784,2.14976 9.65949,-5.05244 z m -16.01602,-1.85553 c 0.17835,-5.11104 -0.0283,-5.94019 -1.3536,-5.43162 -1.28379,0.49264 -1.34334,0.33423 -0.33229,-0.884 1.03099,-1.24227 -0.59818,-3.3045 -9.99478,-12.65156 l -11.22655,-11.16737 -1.46818,3.37867 c -2.23973,5.15422 -4.37474,14.93985 -3.71385,17.02212 0.32408,1.0211 1.1337,1.85655 1.79915,1.85655 0.66544,0 6.56409,3.37103 13.10811,7.49117 6.54401,4.12014 12.1397,7.24967 12.43486,6.95451 0.29516,-0.29516 0.63137,-3.25097 0.74713,-6.56847 z m -0.3293,-24.83135 c -0.60482,-8.07947 -1.49496,-9.75531 -10.50175,-19.771329 l -3.7997,-4.22547 -3.05638,6.05465 -3.05639,6.05466 4.19206,4.670819 c 10.80679,12.04097 15.47166,16.59425 16.10186,15.71667 0.37685,-0.52477 0.43099,-4.34977 0.1203,-8.5 z m 19.4205,-5.7587 4.53685,-5.31043 -1.71017,-4.478019 c -0.9406,-2.46292 -2.21129,-4.78773 -2.82376,-5.16626 -0.63948,-0.39522 -3.52995,1.93899 -6.78927,5.48272 -6.08945,6.620799 -6.94209,8.995309 -6.88892,19.184829 l 0.0287,5.5 4.55487,-4.9512 c 2.50517,-2.72316 6.59644,-7.3409 9.0917,-10.26164 z m -19.58709,-31.051729 -0.3611,-3.26456 -4.1389,4.67923 c -2.27639,2.57357 -4.71419,5.48698 -5.41734,6.47423 -1.3654,1.91707 -1.62972,1.46594 6.27845,10.71555 l 3,3.50887 0.5,-9.42437 c 0.275,-5.18341 0.3375,-10.89343 0.13889,-12.68895 z m 13.49682,13.03016 c 1.48482,-2.10797 1.38341,-2.49958 -1.79205,-6.92038 -3.46391,-4.82236 -6.75088,-7.15177 -5.50301,-3.89987 0.36264,0.94503 0.66159,5.61893 0.66432,10.38645 l 0.005,8.66821 2.52595,-3 c 1.38927,-1.65 3.2342,-4.00549 4.09983,-5.23441 z M 346.92852,47.640487 c 0,-0.58246 -0.45,-0.78091 -1,-0.44099 -1.28138,0.79194 -1.28138,1.5 0,1.5 0.55,0 1,-0.47655 1,-1.05901 z m -0.39583,-4.67015 c -0.33229,-0.33229 -0.56864,0.25833 -0.52522,1.3125 0.048,1.16494 0.28494,1.4019 0.60416,0.60416 0.28887,-0.72187 0.25335,-1.58437 -0.0789,-1.91666 z m 6.57605,-8.64844 c 1.20717,-1.80062 -1.14624,-4.6224 -3.85516,-4.6224 -2.76585,0 -5.40799,2.62033 -4.64555,4.6072 0.55109,1.43613 7.53972,1.44862 8.50071,0.0152 z m 64.81978,422.760163 c -4.51735,-2.02265 -11.92917,-7.57002 -11.96908,-8.95825 -0.017,-0.59162 -1.19971,-2.16662 -2.62824,-3.5 -4.95812,-4.62787 -6.59048,-9.37003 -6.54466,-19.01288 0.0512,-10.78353 2.42012,-17.06955 8.56835,-22.73679 7.16378,-6.60334 12.21353,-8.98353 20.57363,-9.69731 9.13719,-0.78013 13.96756,0.71143 21.75134,6.71658 4.59306,3.54351 6.11948,5.66166 10.40927,14.44446 5.3882,11.03169 5.5375,12.36002 2.557,22.74617 -1.3598,4.73836 -11.61804,15.50369 -17.75841,18.63627 -5.66102,2.88804 -19.82455,3.66079 -24.9592,1.36175 z m 18.40185,-6.33852 c 7.24879,-3.25231 7.95301,-3.7286 14.1367,-9.56123 6.67116,-6.29245 7.85196,-14.53399 3.65296,-25.49771 -1.4751,-3.85139 -9.90332,-12.7319 -14.81577,-15.61079 -5.38359,-3.155 -9.28944,-3.23165 -17.94243,-0.35212 -9.42515,3.13649 -13.38872,7.36128 -16.78523,17.89148 -3.05003,9.45598 -3.33499,14.60982 -1.00154,18.11382 2.73572,4.10807 10.62779,12.03047 14.40772,14.46308 6.62844,4.26582 9.85643,4.36319 18.34759,0.55347 z m -9.80549,-0.59054 c -1.92889,-1.92889 -4.59636,-10.71239 -4.59636,-15.135 0,-3.03478 -0.26153,-3.3185 -3.05902,-3.3185 -1.9249,0 -2.81297,0.39811 -2.39535,1.07382 0.46059,0.74527 0.0962,0.77509 -1.19099,0.0975 -1.02005,-0.537 -3.74366,-1.5345 -6.05246,-2.21667 -4.07254,-1.20328 -5.90855,-3.16447 -4.73704,-5.06001 1.23293,-1.99493 8.21792,-4.12636 13.68486,-4.17587 3.1625,-0.0286 5.75,-0.20818 5.75,-0.39898 0,-0.19079 -0.53665,-1.20621 -1.19255,-2.25648 -0.94189,-1.5082 -0.84129,-3.52824 0.47862,-9.61055 1.58464,-7.30218 3.75214,-10.82262 6.21032,-10.08675 1.2242,0.36648 2.44557,6.0151 3.16423,14.63402 l 0.54198,6.5 6.87769,0.076 c 4.62354,0.0511 7.45814,0.57483 8.6487,1.598 0.97406,0.8371 2.55851,1.80128 3.52101,2.14262 0.9625,0.34133 1.75001,1.46638 1.75001,2.50009 0,2.43974 -8.1894,5.18329 -15.47195,5.18329 h -5.24227 l -0.53961,7.87276 c -0.74368,10.84995 -2.63191,14.09865 -6.14982,10.58074 z m -163.92403,5.11387 c -7.40473,-1.99033 -12.59473,-6.22178 -16.96755,-13.8338 -3.2172,-5.60037 -3.95023,-7.93969 -4.41547,-14.09122 -0.49095,-6.49156 -0.25035,-8.04769 2.00648,-12.97726 5.51443,-12.0451 16.10537,-19.69579 30.15856,-21.78594 9.86095,-1.46663 14.69602,0.23191 22.9011,8.04508 7.38535,7.03259 9.24497,10.70835 10.77652,21.30104 l 1.22798,8.49316 -4.44574,7.89078 c -3.53054,6.26638 -5.57474,8.66035 -9.92998,11.62901 -9.52584,6.4931 -20.21399,8.31218 -31.3119,5.32915 z m 10.32767,-5.10255 c 0,-0.29435 -0.72437,-1.64071 -1.60971,-2.99191 -1.21071,-1.84779 -1.51985,-4.25576 -1.24719,-9.71482 l 0.36251,-7.25809 -7.38503,-0.18223 c -4.06177,-0.10022 -7.86553,-0.66272 -8.45281,-1.25 -0.58727,-0.58727 -1.82267,-1.06777 -2.74533,-1.06777 -2.49307,0 -4.27392,-2.47616 -2.68477,-3.73302 1.40349,-1.11002 14.80588,-4.26546 18.135,-4.26967 1.96546,-0.002 2.13425,-0.55415 2.21825,-7.25 0.0532,-4.24082 0.75801,-8.80297 1.69897,-10.99731 0.88443,-2.0625 1.35411,-3.75 1.04374,-3.75 -0.31038,0 -3.80583,1.51801 -7.76768,3.37335 -6.17699,2.89271 -7.73561,4.17524 -10.93891,9.00122 -6.79045,10.23025 -7.75914,18.66793 -3.16346,27.555 1.86308,3.60281 9.5229,9.80437 14.25556,11.54163 3.8718,1.42126 8.28086,1.9503 8.28086,0.99362 z m 14.45932,-2.44738 c 7.28438,-3.12245 14.54068,-12.84691 14.54068,-19.48656 0,-4.32109 -4.22116,-16.77048 -7.12146,-21.00319 -2.89073,-4.21875 -8.79918,-8.2751 -13.6366,-9.362 -5.90107,-1.32588 -7.02754,-0.23425 -4.81695,4.66796 1.22011,2.70573 1.79723,6.41516 1.79723,11.55167 0,7.1633 0.1027,7.51116 1.92892,6.53379 1.18753,-0.63554 4.67488,-0.76174 9.07322,-0.32834 5.78888,0.57042 7.58008,1.17419 9.44123,3.18241 1.26332,1.36314 2.09354,2.80754 1.84495,3.20977 -0.60669,0.98165 -10.91354,3.04619 -16.51054,3.3072 l -4.5,0.20985 -1.15488,8.13801 c -0.63518,4.4759 -1.68836,9.13483 -2.3404,10.35317 -1.1606,2.16861 -1.09532,2.19992 3.1065,1.49003 2.36061,-0.39882 6.11725,-1.50752 8.3481,-2.46377 z m 339.72239,-13.29856 c -0.5848,-0.70461 -1.1496,-4.64211 -1.255,-8.75 -0.1903,-7.41305 -1.1396,-10.96888 -2.9285,-10.96888 -0.5123,0 -3.2013,2.01593 -5.9755,4.47985 -8.3644,7.42879 -14.0227,9.33583 -14.0227,4.72614 0,-1.4091 8.7617,-9.53281 13.8413,-12.83349 0.1877,-0.12198 0.0449,-1.15569 -0.3174,-2.29714 -0.5986,-1.886 -1.4341,-2.07536 -9.157,-2.07536 -8.8292,0 -12.3669,-1.01837 -12.3669,-3.55993 0,-2.60418 5.0059,-3.67595 14.5,-3.10449 7.992,0.48105 8.776,0.38123 7,-0.89122 -6.9568,-4.98438 -13.4945,-10.85151 -14.0532,-12.61186 -0.4002,-1.26098 -0.0654,-2.64247 0.8661,-3.57401 1.358,-1.358 2.0008,-1.28505 6.0811,0.69021 2.5094,1.21479 5.9602,3.97329 7.6683,6.13 4.7219,5.96179 5.9356,5.2826 5.9487,-3.3287 0.006,-3.9875 0.2855,-8.91025 0.621,-10.93945 0.6209,-3.755 2.9129,-5.66564 4.6785,-3.90001 0.8045,0.80448 2.3763,12.37732 2.6266,19.33946 0.1022,2.84409 2.1522,2.06631 9.8837,-3.75 4.0211,-3.025 7.9298,-5.5 8.6861,-5.5 4.2149,0 1.8192,4.93617 -4.7643,9.81681 -8.0611,5.97593 -7.9757,5.87911 -6.9202,7.85123 0.8234,1.53859 2.4594,1.8761 10.216,2.10761 10.2651,0.30638 10.9616,0.51381 10.9616,3.26431 0,2.4449 -3.5135,3.37641 -10.3389,2.74109 -2.8386,-0.26423 -6.214,-0.2073 -7.5008,0.1265 l -2.3396,0.60692 2.4687,2.49276 c 1.3578,1.37103 4.3156,4.25178 6.5727,6.40167 4.4259,4.21552 5.9149,7.21412 4.3562,8.77279 -1.343,1.34302 -7.5401,-1.93777 -13.3718,-7.07908 -4.2326,-3.73164 -7.8465,-5.27271 -7.8465,-3.34601 0,0.41613 0.4639,2.32863 1.0309,4.25 0.7361,2.49434 0.6837,5.28081 -0.1834,9.7434 -1.1923,6.13634 -2.5219,7.55222 -4.6658,4.96888 z m 3.7834,-27.18169 c 2.2101,-2.35258 2.2392,-2.57637 0.6512,-5 -1.7904,-2.73259 -5.6727,-3.41051 -7.3715,-1.28719 -2.038,2.54738 -2.3323,5.51969 -0.7073,7.14463 2.2775,2.27752 4.7506,1.99203 7.4276,-0.85744 z m -8.5656,-81.28719 c -0.448,-0.9625 -1.0586,-6.12204 -1.357,-11.46564 l -0.5425,-9.71563 -7.0475,5.82209 c -9.0527,7.47855 -11.1387,8.61447 -12.9934,7.07525 -1.1914,-0.98882 -0.9496,-1.84629 1.5425,-5.46835 1.6255,-2.3626 4.8776,-5.77118 7.2269,-7.57462 2.3493,-1.80344 4.6237,-3.57366 5.0543,-3.93382 0.4305,-0.36016 0.5297,-1.31435 0.2204,-2.12041 -0.457,-1.19082 -2.4906,-1.39553 -10.8479,-1.09199 -8.2444,0.29944 -10.5321,0.0765 -11.5278,-1.12329 -0.9921,-1.19542 -0.979,-1.92896 0.0651,-3.64245 1.226,-2.01192 1.9661,-2.12581 11.8815,-1.82836 8.62,0.25859 10.3359,0.0795 9.2851,-0.96917 -0.709,-0.70751 -2.0136,-2.50751 -2.899,-4 -0.8855,-1.49248 -3.3724,-4.03454 -5.5265,-5.64901 -3.9672,-2.97332 -5.5766,-5.71531 -4.437,-7.55932 1.2647,-2.04634 6.1734,0.47431 12.9639,6.65707 3.8284,3.48571 7.2267,6.33765 7.5519,6.33765 0.3252,0 0.2901,-2.91043 -0.0781,-6.46761 -0.3682,-3.55719 -0.4768,-7.71969 -0.2412,-9.25 1.0589,-6.88069 1.3284,-7.41934 3.5514,-7.09731 2.8087,0.40687 4.012,5.67824 3.5531,15.56492 -0.1851,3.9875 -0.0801,7.25 0.2334,7.25 0.3136,0 1.8774,-2.06827 3.4753,-4.59616 2.8504,-4.50955 10.9114,-12.40384 12.6658,-12.40384 1.3854,0 2.1068,2.75226 1.4291,5.45227 -0.3379,1.34629 -3.0864,5.11793 -6.1078,8.38142 -6.5998,7.12857 -6.9288,8.58359 -1.7435,7.71117 5.6367,-0.94837 15.6052,-1.06142 17.0104,-0.19292 1.9319,1.19397 1.4584,4.46062 -0.8237,5.68191 -1.1347,0.60732 -6.0847,1.36476 -11,1.68321 -4.9152,0.31844 -8.9367,0.93023 -8.9367,1.35953 0,0.42931 0.6487,1.3752 1.4415,2.10198 13.8386,12.68545 16.3752,16.82392 10.3085,16.81855 -2.5169,-0.002 -3.7012,-0.69054 -5.25,-3.05137 -2.241,-3.41578 -10.6619,-10.71907 -11.4679,-9.94575 -0.2865,0.275 -0.368,4.62248 -0.1809,9.66106 0.187,5.03859 0.0417,10.10109 -0.323,11.25 -0.8232,2.5936 -4.9725,2.82307 -6.1287,0.33894 z m 5.569,-29.55646 c 1.4208,-2.60361 1.3912,-2.91079 -0.4096,-4.25 -2.6218,-1.94973 -3.2495,-1.84384 -6.127,1.0337 -2.1543,2.15426 -2.3114,2.74568 -1.2046,4.5363 1.7968,2.90695 5.8076,2.22303 7.7412,-1.32 z m -206.96851,8.94524 c -5.8432,-1.59226 -15.08926,-7.56425 -18.27067,-11.80095 -7.67447,-10.22012 -10.95938,-21.55605 -8.68937,-29.98621 1.45158,-5.39078 10.04415,-17.95816 14.91716,-21.81766 3.03033,-2.40007 5.73992,-3.632 10.04288,-4.56606 4.6262,-1.00423 16.28272,-1.48805 17.25537,-0.71621 0.68455,0.54321 3.03915,1.56653 5.23246,2.27403 5.24105,1.69062 14.95158,11.02123 18.14618,17.43614 6.5673,13.1878 2.8581,30.04482 -8.63401,39.23809 -3.5287,2.82283 -14.68717,8.89735 -18.43337,10.03487 -4.8934,1.48586 -5.78868,1.47843 -11.56663,-0.096 z m 10.3121,-7.33298 c 2.85335,-0.93181 8.1129,-3.3302 11.6879,-5.32975 8.3122,-4.64915 15.00001,-13.85872 15.00001,-20.65605 0,-6.99421 -3.4642,-14.49509 -9.78934,-21.19662 -9.08235,-9.62279 -12.68189,-10.12315 -31.16182,-4.33172 -3.26829,1.02425 -6.81842,3.06939 -8.86555,5.10722 -3.81467,3.79734 -7.57971,11.23809 -6.13752,12.12941 0.5679,0.35098 0.54515,1.91125 -0.0585,4.01623 -1.52226,5.3078 -1.23068,7.42116 2.12779,15.422 3.33161,7.93688 6.71438,11.19833 15.27548,14.72761 5.21319,2.14912 5.66954,2.15339 11.9216,0.11167 z m -3.08525,-3.5558 c -2.23061,-2.73886 -4.33979,-9.466 -4.15432,-13.25 0.29476,-6.01369 0.28793,-6.02178 -4.82191,-5.71191 -5.1333,0.31129 -14.31649,-2.4857 -15.01204,-4.57234 -0.69541,-2.08625 6.23965,-4.21575 13.7293,-4.21575 h 7.03212 l 0.0964,-5.25 c 0.053,-2.8875 0.61553,-7.725 1.25,-10.75 0.92612,-4.41557 1.54209,-5.5 3.12404,-5.5 2.38553,0 4.49462,3.82643 4.51479,8.19098 0.008,1.75504 0.47855,3.47763 1.04542,3.82798 0.58878,0.36389 0.7637,2.06019 0.40796,3.95642 l -0.62272,3.31941 5.34204,1.1509 c 2.93812,0.633 7.24965,1.41466 9.58117,1.73704 4.26308,0.58945 6.91248,2.454 5.87408,4.13408 -0.6314,1.02161 -10.09695,3.76151 -16.0549,4.64724 -2.16792,0.3223 -4.17333,0.81764 -4.45646,1.10077 -0.28313,0.28313 -0.835,3.86714 -1.22637,7.96446 -0.81772,8.56078 -3.12228,12.3227 -5.64863,9.22072 z m -157.80129,10.37044 c 0.29898,-0.48375 -2.65159,-1.90695 -6.55681,-3.16264 -6.24982,-2.00959 -7.89515,-3.10694 -13.73458,-9.16022 -8.39455,-8.70197 -9.45817,-11.15756 -9.4414,-21.79758 0.0268,-16.99227 1.4581,-20.90049 10.41461,-28.4369 4.92792,-4.14657 15.80669,-6.94402 24.26634,-6.24003 9.72335,0.80915 13.98992,2.36464 19.29528,7.0346 5.41179,4.76366 8.32393,9.19859 11.064,16.84951 1.81791,5.07604 1.93793,6.67192 1.08532,14.4311 -0.52724,4.79816 -1.48955,9.47844 -2.13847,10.40061 -5.64661,8.02437 -16.21529,16.27617 -22.31061,17.41966 -2.07191,0.3887 -4.67771,1.34453 -5.79068,2.12408 -2.20172,1.54215 -7.03479,1.96459 -6.153,0.53781 z m 15.21313,-10.05166 c 4.25849,-1.83916 5.97137,-3.42769 10,-9.27402 l 4.86131,-7.05472 -0.12143,-8.62002 c -0.15196,-10.78673 -1.65282,-14.3421 -8.81928,-20.89184 -4.22607,-3.86239 -6.72869,-5.31324 -10.59534,-6.14249 -9.23867,-1.98134 -14.39531,-1.2762 -23.96395,3.27692 -3.80492,1.81053 -5.01411,3.1643 -7.82841,8.76449 -6.28097,12.49852 -5.34403,20.1325 3.74587,30.52056 3.0704,3.50889 7.60754,7.75255 10.08254,9.43034 4.11732,2.79112 5.05276,3.0148 11,2.63031 3.62244,-0.2342 8.7749,-1.40272 11.63869,-2.63953 z m -14.20945,-0.81878 c -0.33488,-1.5125 -1.00433,-4.1 -1.48769,-5.75 -0.48335,-1.65 -0.97014,-5.025 -1.08175,-7.5 -0.11161,-2.475 -0.35474,-4.95 -0.54029,-5.5 -0.19136,-0.56719 -2.87749,-0.85602 -6.20625,-0.66734 -4.46953,0.25334 -6.85176,-0.16877 -9.99107,-1.77032 -4.30182,-2.19463 -5.36726,-4.73977 -2.37219,-5.66672 0.9625,-0.29789 2.53139,-0.95877 3.48643,-1.46862 0.95504,-0.50985 4.66754,-0.927 8.25,-0.927 h 6.51357 v -3.8185 c 0,-5.02881 2.5891,-13.59559 4.61777,-15.27924 1.38106,-1.14618 1.88663,-0.99757 3.53604,1.03936 1.59287,1.96711 1.87474,3.6851 1.63539,9.96757 l -0.2892,7.59081 9.32755,1.19192 c 9.48698,1.21229 12.44724,2.42842 11.55717,4.74789 -0.63162,1.64599 -12.27385,4.83644 -16.03644,4.39463 -2.6158,-0.30714 -2.86798,-0.0488 -3.0897,3.16556 -0.91553,13.27328 -6.10409,24.04226 -7.82934,16.25 z"
     id="path2161" />
</svg>
